<svg width="32" height="32" viewBox="0 0 32 32" xmlns="http://www.w3.org/2000/svg">
  <rect width="32" height="32" rx="6" fill="#1a1a1a"/>
  <g transform="translate(16,10)">
    <path d="M-7 3 Q-7,-9 0,-9 Q7,-9 7,3" fill="none" stroke="#FF6B35" stroke-width="2.5" stroke-linecap="round"/>
    <rect x="-10" y="0" width="5" height="9" rx="2.5" fill="#FF6B35"/>
    <rect x="5" y="0" width="5" height="9" rx="2.5" fill="#FF6B35"/>
    <path d="M-14 2 Q-17,6 -14,10" fill="none" stroke="#FF6B35" stroke-width="1.5" stroke-linecap="round" opacity="0.65"/>
    <path d="M14 2 Q17,6 14,10" fill="none" stroke="#FF6B35" stroke-width="1.5" stroke-linecap="round" opacity="0.65"/>
  </g>
  <g transform="translate(16,23)" opacity="0.55">
    <rect x="-6" y="-2" width="2" height="4" rx="1" fill="#FF6B35"/>
    <rect x="-3" y="-4" width="2" height="8" rx="1" fill="#FF6B35"/>
    <rect x="0"  y="-2" width="2" height="4" rx="1" fill="#FF6B35"/>
    <rect x="3"  y="-5" width="2" height="10" rx="1" fill="#FF6B35"/>
    <rect x="6"  y="-3" width="2" height="6" rx="1" fill="#FF6B35"/>
  </g>
  <text x="16" y="31" font-family="Arial,sans-serif" font-size="5.5" font-weight="800" fill="white" text-anchor="middle" letter-spacing="1">MTA</text>
</svg>
