<svg width="320" height="100" viewBox="0 0 320 100" xmlns="http://www.w3.org/2000/svg">
  <defs>
    <linearGradient id="bg0" x1="0" y1="0" x2="1" y2="0"><stop offset="0%" stop-color="#1a1a1a"/><stop offset="100%" stop-color="#111"/></linearGradient>
    <linearGradient id="og0" x1="0" y1="0" x2="1" y2="0"><stop offset="0%" stop-color="#FF6B35"/><stop offset="100%" stop-color="#E8501A"/></linearGradient>
    <clipPath id="cc0"><rect x="0" y="0" width="320" height="100" rx="14"/></clipPath>
  </defs>
  <rect x="0" y="0" width="320" height="100" rx="14" fill="url(#bg0)"/>
  <rect x="0" y="0" width="3" height="100" fill="url(#og0)" clip-path="url(#cc0)"/>
  <rect x="0" y="0" width="320" height="100" rx="14" fill="none" stroke="#333" stroke-width="1"/>
  <g transform="translate(52,46)">
    <path d="M-20 6 Q-20,-28 0,-28 Q20,-28 20,6" fill="none" stroke="#FF6B35" stroke-width="5" stroke-linecap="round"/>
    <path d="M-14 6 Q-14,-19 0,-19 Q14,-19 14,6" fill="none" stroke="#FF8555" stroke-width="1" stroke-linecap="round" opacity="0.35"/>
    <rect x="-28" y="0" width="13" height="21" rx="6.5" fill="#FF6B35"/>
    <rect x="-25" y="3" width="7" height="13" rx="3.5" fill="#CC4418" opacity="0.5"/>
    <rect x="15" y="0" width="13" height="21" rx="6.5" fill="#FF6B35"/>
    <rect x="18" y="3" width="7" height="13" rx="3.5" fill="#CC4418" opacity="0.5"/>
  </g>
  <g transform="translate(52,76)" opacity="0.5">
    <rect x="-12" y="-3" width="3" height="7" rx="1.5" fill="#FF6B35"/>
    <rect x="-8" y="-5" width="3" height="11" rx="1.5" fill="#FF6B35"/>
    <rect x="-4" y="-2" width="3" height="5" rx="1.5" fill="#FF6B35"/>
    <rect x="0"  y="-7" width="3" height="15" rx="1.5" fill="#FF6B35"/>
    <rect x="4"  y="-4" width="3" height="9" rx="1.5" fill="#FF6B35"/>
    <rect x="8"  y="-2" width="3" height="5" rx="1.5" fill="#FF6B35"/>
    <rect x="12" y="-5" width="3" height="11" rx="1.5" fill="#FF6B35"/>
  </g>
  <line x1="96" y1="14" x2="96" y2="86" stroke="#2a2a2a" stroke-width="1"/>
  <text x="112" y="38" font-family="Arial,sans-serif" font-size="11" font-weight="700" fill="#FF6B35" letter-spacing="2">TRUYEN</text>
  <text x="165" y="38" font-family="Arial,sans-serif" font-size="11" font-weight="700" fill="#FF6B35" letter-spacing="2" opacity="0.7">· CỦA TÔI</text>
  <rect x="112" y="41" width="40" height="1.5" rx="1" fill="#FF6B35" opacity="0.5"/>
  <text x="112" y="72" font-family="Arial,sans-serif" font-size="32" font-weight="800" fill="white" letter-spacing="1">AUDIO</text>
  <text x="112" y="87" font-family="Arial,sans-serif" font-size="9" fill="white" letter-spacing="1" opacity="0.6">Nghe truyện mọi lúc mọi nơi</text>
</svg>
